<?xml version="1.0" encoding="utf-8"?>
<!-- Svg Vector Icons : http://www.onlinewebfonts.com/icon -->
<!DOCTYPE svg PUBLIC "-//W3C//DTD SVG 1.1//EN" "http://www.w3.org/Graphics/SVG/1.1/DTD/svg11.dtd">
<svg version="1.1" xmlns="http://www.w3.org/2000/svg" xmlns:xlink="http://www.w3.org/1999/xlink" x="0px" y="0px" viewBox="0 0 1000 1000" enable-background="new 0 0 1000 1000" xml:space="preserve">
<metadata> Svg Vector Icons : http://www.onlinewebfonts.com/icon </metadata>
<g><path d="M500,10C229.3,10,10,229.3,10,500s219.3,490,490,490s490-219.3,490-490S770.7,10,500,10z M500,178.4c75.9,0,137.8,61.9,137.8,137.8c0,75.9-61.9,137.8-137.8,137.8c-75.9,0-137.8-61.9-137.8-137.8C362.2,240.3,424.1,178.4,500,178.4z M500,836.9c-113.9,0-213.7-56.3-275-142.8c6.8-88.8,185-132.9,275-132.9c90,0,268.3,44.1,275,132.9C713.7,780.6,613.9,836.9,500,836.9z"/></g>
</svg>