<?xml version="1.0" encoding="utf-8"?>
<!-- Svg Vector Icons : http://www.onlinewebfonts.com/icon -->
<!DOCTYPE svg PUBLIC "-//W3C//DTD SVG 1.1//EN" "http://www.w3.org/Graphics/SVG/1.1/DTD/svg11.dtd">
<svg version="1.1" xmlns="http://www.w3.org/2000/svg" xmlns:xlink="http://www.w3.org/1999/xlink" x="0px" y="0px" viewBox="0 0 1000 1000" enable-background="new 0 0 1000 1000" xml:space="preserve">
<metadata> Svg Vector Icons : http://www.onlinewebfonts.com/icon </metadata>
<g><path d="M789.5,970.1c-3.4,14-17.8,22.5-31.8,19.2c-13.8-3.4-22.5-17.4-19.3-31.7l32.1-125.3V570.3c0-10.7-5.3-17.4-12.8-20.1c-2.8-1.2-6.2-1.8-10.3-1.8c-3.5,0-7.5,0.6-10.3,1.8c-6.8,2.8-12.8,8.9-13.1,19.2v0.3v0.6V599c0,14.3-11.2,25.9-26.2,25.9c-14.3,0-26.5-11.6-26.5-25.9v-67.4c0-10.7-5.6-17.4-12.5-20.5c-2.8-1.2-6.9-1.8-10.3-1.8c-4.1,0-7.5,0.6-10.6,1.8c-6.9,3.1-12.5,9.1-12.5,19.2v1.2V599c0,14.3-12.2,25.9-26.8,25.9c-14.7,0-26.2-11.6-26.2-25.9v-77.5c0-11.3-5.9-18-12.8-20.4c-2.8-0.9-6.9-1.5-10.3-1.5c-4.1,0-7.5,0.6-10.9,1.5c-6.9,2.4-12.2,9.1-12.2,19.2v0.6v0.6V599c0,14.3-12.2,25.9-26.8,25.9c-14.7,0-26.2-11.6-26.2-25.9V349.6c0-10.4-5.6-17.4-12.5-20.8c-3.4-0.9-6.9-1.5-10.9-1.5c-3.4,0-7.5,0.6-10.3,1.5c-7.2,3.4-12.8,10.4-12.8,20.8v412.8c0,14-11.6,25.3-25.9,25.3c-15,0-26.8-11.3-26.8-25.3V649.9v-0.6v-0.6c-0.3-10.1-5.6-16.5-12.5-19.8c-3.4-0.6-6.9-1.2-10.9-1.2c-3.5,0-7.2,0.6-9.7,1.2c-7.5,3.3-13.1,10.4-13.1,21v128.7c0,50.9,1.9,53.1,28.7,87.5l7.5,8.9l58,73.5c8.7,11.6,6.9,27.4-5,36.3c-11.2,8.6-28.4,6.1-37.1-5.2l-57.4-73.2l-7.8-9.5c-37.1-46.6-39.6-50-39.6-118.3V649.9c0-35.7,20.2-58.3,45.5-68.3c9.7-4,20.3-5.5,30-5.5c7.8,0,15.6,0.9,23.4,3.4V349.6c0-35.4,20.3-58.3,45.9-68c9.7-4,20-5.5,29.9-5.5c10.3,0,20.6,1.5,30.3,5.5c26.2,9.7,46.2,32.6,46.2,68v101.2c7.5-1.8,15.6-3,23.1-3c9.6,0,20.2,1.5,29.9,5.5c9.7,4,18.4,9.7,25.9,17.1c4.1-3.1,8.4-5.2,13.4-6.7c9-4,20-5.8,29.9-5.8c9.7,0,20,1.8,29.9,5.8c17.2,6.7,32.1,20.1,40.2,38.1c9-3.4,19-5.2,28.7-5.2c10.3,0,20.2,2.4,29.9,5.8c25.9,10.1,45.9,33.3,45.9,68v265.3h-0.3c0,1.8,0,4-0.7,5.5L789.5,970.1L789.5,970.1L789.5,970.1z"/><path d="M374,546v-48.7c-87.9-31.4-150.9-115.4-150.9-213.9c0-125.2,101.9-227.1,227.1-227.1c125.2,0,227.1,101.9,227.1,227.1c0,87-49.1,162.6-121.1,200.8c18.2,2.6,34.7,12.2,46.2,26.4c14.6-9.8,28.4-21.1,41.1-33.9c51.6-51.6,80.1-120.3,80.1-193.3c0-73-28.4-141.7-80.1-193.3C591.8,38.4,523.2,10,450.2,10c-73,0-141.7,28.4-193.3,80.1c-51.6,51.6-80.1,120.3-80.1,193.3c0,73,28.4,141.7,80.1,193.3C290,509.8,330.2,533.4,374,546z"/><path d="M374,479.9v-50.8c-52.5-27.5-88.4-82.5-88.4-145.8c0-90.7,73.8-164.5,164.5-164.5c90.7,0,164.5,73.8,164.5,164.5c0,65.9-38.9,122.8-95,149.1v49.9c82.2-28.8,141.3-107.1,141.3-199c0-116.2-94.6-210.8-210.8-210.8c-116.2,0-210.8,94.6-210.8,210.8C239.3,372.8,295.3,449.3,374,479.9z"/><path d="M568.1,327.3"/></g>
</svg>