<svg height="512pt" viewBox="-6 0 512 512" width="512pt" xmlns="http://www.w3.org/2000/svg"><path d="m474.902344 148.453125h-47.902344v-129.011719c0-10.71875-8.722656-19.441406-19.441406-19.441406h-388.117188c-10.71875 0-19.441406 8.722656-19.441406 19.441406v247.980469c0 10.722656 8.722656 19.441406 19.441406 19.441406h148.507813v28.253907h-3.460938c-9.082031 0-16.46875 7.390624-16.46875 16.472656v11.648437c0 9.082031 7.386719 16.46875 16.46875 16.46875h98.019531c9.082032 0 16.472657-7.386719 16.472657-16.46875v-11.648437c0-9.082032-7.390625-16.472656-16.472657-16.472656h-3.460937v-28.253907h25.71875v200.644531c0 13.503907 10.988281 24.492188 24.492187 24.492188h165.644532c13.503906 0 24.492187-10.988281 24.492187-24.492188v-314.5625c0-13.503906-10.988281-24.492187-24.492187-24.492187zm-210.917969 183.136719v11.648437c0 .8125-.660156 1.472657-1.476563 1.472657h-98.019531c-.8125 0-1.472656-.660157-1.472656-1.472657v-11.648437c0-.8125.660156-1.476563 1.472656-1.476563h10.941407.019531.019531 76.0625.019531.015625 10.941406c.8125 0 1.476563.664063 1.476563 1.476563zm-19.929687-16.472656h-61.109376v-28.253907h61.109376zm-224.613282-43.25c-2.453125 0-4.445312-1.992188-4.445312-4.445313v-247.980469c0-2.453125 1.992187-4.445312 4.445312-4.445312h388.117188c2.449218 0 4.445312 1.992187 4.445312 4.445312v129.011719h-54.230468v-63.316406c0-5.691407-2.742188-10.742188-6.964844-13.9375-.179688-.152344-.371094-.292969-.566406-.425781-2.832032-1.96875-6.261719-3.132813-9.964844-3.132813h-253.609375c-9.648438 0-17.496094 7.847656-17.496094 17.492187v104.3125c0 4.988282 2.109375 9.480469 5.464844 12.667969.890625 1.199219 2.097656 2.074219 3.449219 2.5625 2.539062 1.4375 5.464843 2.265625 8.582031 2.265625h198.097656v64.925782zm289.816406-123.414063c-9.765624 0-18.210937 5.746094-22.140624 14.035156l-55.523438-25.246093 111.1875-50.550782v61.761719zm-187.617187-44.726563 73.722656 33.519532-111.195312 50.554687v-102.664062c0-1.378907 1.121093-2.5 2.5-2.5h228.804687l-101.996094 46.371093-85.628906-38.933593c-3.769531-1.714844-8.214844-.046875-9.925781 3.722656-1.714844 3.769531-.050781 8.214844 3.71875 9.929687zm91.835937 41.753907 71.289063 32.410156v14.054687h-173.492187zm270.921876 342.027343c0 5.238282-4.257813 9.496094-9.496094 9.496094h-165.644532c-5.234374 0-9.496093-4.257812-9.496093-9.496094v-314.5625c0-5.238281 4.261719-9.496093 9.496093-9.496093h109.085938c.378906.058593.761719.097656 1.15625.097656s.78125-.039063 1.160156-.097656h54.242188c5.238281 0 9.496094 4.257812 9.496094 9.496093zm0 0"/><path d="m452.554688 172.769531h-120.949219c-9.644531 0-17.496094 7.847657-17.496094 17.492188v251.332031c0 9.644531 7.851563 17.492188 17.496094 17.492188h120.949219c9.644531 0 17.496093-7.847657 17.496093-17.492188v-251.332031c0-9.644531-7.847656-17.492188-17.496093-17.492188zm2.5 268.824219c0 1.375-1.121094 2.496094-2.5 2.496094h-120.949219c-1.378907 0-2.5-1.121094-2.5-2.496094v-251.332031c0-1.378907 1.121093-2.5 2.5-2.5h120.949219c1.378906 0 2.5 1.121093 2.5 2.5zm0 0"/><path d="m440.527344 226.277344c-4.515625-8.847656-13.710938-14.925782-24.304688-14.925782h-47.871094c-10.519531 0-19.660156 5.992188-24.207031 14.734376-.109375.195312-.210937.390624-.304687.59375-1.765625 3.609374-2.761719 7.660156-2.761719 11.941406v154.898437c0 7.019531 2.667969 13.425781 7.039063 18.265625.164062.191406.339843.375.523437.550782 4.96875 5.203124 11.964844 8.453124 19.710937 8.453124h47.871094c7.988282 0 15.1875-3.453124 20.179688-8.945312.148437-.15625.289062-.320312.421875-.488281 4.148437-4.785157 6.667969-11.019531 6.667969-17.835938v-154.898437c0-4.242188-.976563-8.261719-2.710938-11.84375-.078125-.167969-.164062-.335938-.253906-.5zm-12.03125 156.804687-27.863282-61.355469 27.863282-61.523437zm-60.144532-156.734375h47.871094c3.683594 0 6.984375 1.640625 9.238282 4.21875l-33.066407 73.011719-33.199219-73.105469c2.25-2.523437 5.515626-4.125 9.15625-4.125zm-12.277343 157.417969v-123.898437l28.09375 61.867187zm12.277343 22.03125c-1.882812 0-3.65625-.4375-5.25-1.195313l29.308594-64.71875 29.328125 64.589844c-1.660156.839844-3.53125 1.324219-5.515625 1.324219zm0 0"/><path d="m245.546875 458.792969c-.011719-.121094-.027344-.246094-.042969-.367188-.023437-.160156-.046875-.316406-.078125-.472656-.003906-.019531-.007812-.039063-.011719-.058594-.242187-1.175781-.761718-2.265625-1.5-3.183593l-16.007812-23.425782c-2.335938-3.421875-7.003906-4.300781-10.421875-1.960937-3.417969 2.335937-4.292969 7-1.957031 10.417969l6.273437 9.183593c-59.164062-12.992187-110.152343-51.746093-138.480469-105.289062l11.292969 3.550781c3.949219 1.238281 8.15625-.957031 9.398438-4.90625 1.242187-3.953125-.953125-8.160156-4.902344-9.402344l-27.683594-8.695312c-1.015625-.320313-2.050781-.410156-3.046875-.300782-.082031.007813-.164062.023438-.25.035157-.140625.019531-.277344.035156-.414062.0625-.519532.101562-1.035156.253906-1.539063.46875-2.382812 1.019531-3.96875 3.128906-4.417969 5.496093l-8.429687 26.824219c-1.242187 3.949219.953125 8.15625 4.90625 9.398438.746094.234375 1.503906.347656 2.25.347656 3.1875 0 6.144531-2.050781 7.148437-5.253906l2.992188-9.519531c30.523438 56.902343 84.984375 98.0625 148.09375 111.882812l-8.820312 6.023438c-3.417969 2.335937-4.292969 7.003906-1.957032 10.421874 1.449219 2.125 3.800782 3.269532 6.195313 3.269532 1.457031 0 2.929687-.425782 4.222656-1.308594l23.957031-16.371094c1.644532-1.121094 2.773438-2.851562 3.136719-4.804687.121094-.628907.148437-1.261719.105469-1.886719-.003906-.058594-.007813-.117188-.011719-.175781zm0 0"/><path d="m256.972656 234.570312h-204.519531v-192.675781h323.15625v79c0 4.140625 3.359375 7.496094 7.5 7.496094s7.496094-3.355469 7.496094-7.496094v-81.5c0-6.890625-5.605469-12.496093-12.496094-12.496093h-328.15625c-6.890625 0-12.496094 5.605468-12.496094 12.496093v197.671875c0 6.890625 5.605469 12.496094 12.496094 12.496094h207.019531c4.140625 0 7.5-3.355469 7.5-7.496094s-3.359375-7.496094-7.5-7.496094zm0 0"/></svg>